<?xml version="1.0" standalone="no"?>
<!DOCTYPE svg PUBLIC "-//W3C//DTD SVG 20010904//EN"
 "http://www.w3.org/TR/2001/REC-SVG-20010904/DTD/svg10.dtd">
<svg version="1.0" xmlns="http://www.w3.org/2000/svg"
 width="300.000000pt" height="300.000000pt" viewBox="0 0 300.000000 300.000000"
 preserveAspectRatio="xMidYMid meet">

<g transform="translate(0.000000,300.000000) scale(0.100000,-0.100000)"
fill="#000000" stroke="none">
<path d="M1377 2894 c-19 -19 2 -24 109 -24 88 0 115 3 112 13 -5 13 -208 23
-221 11z"/>
<path d="M1370 2840 c0 -6 45 -10 115 -10 70 0 115 4 115 10 0 6 -45 10 -115
10 -70 0 -115 -4 -115 -10z"/>
<path d="M1428 2803 c34 -2 88 -2 120 0 31 2 3 3 -63 3 -66 0 -92 -1 -57 -3z"/>
<path d="M1370 2711 c0 -47 4 -72 14 -80 12 -10 15 -8 18 11 3 22 8 23 86 26
77 3 82 2 82 -18 0 -11 7 -20 15 -20 12 0 15 15 15 75 l0 75 -115 0 -115 0 0
-69z m140 34 c17 -20 5 -45 -20 -45 -11 0 -23 7 -26 15 -6 15 11 45 26 45 4 0
13 -7 20 -15z"/>
<path d="M1205 2740 c27 -28 27 -30 11 -55 -20 -31 -42 -32 -73 -3 -30 28 -38
18 -23 -26 13 -40 35 -56 77 -56 22 0 49 -21 128 -99 l100 -100 7 32 c6 30 2
37 -75 115 -98 98 -83 111 18 15 l70 -68 -77 80 c-65 67 -78 86 -78 113 0 44
-38 82 -81 82 l-33 0 29 -30z"/>
<path d="M1716 2749 c-20 -15 -26 -29 -26 -57 0 -32 -10 -46 -77 -117 l-78
-80 72 69 c40 39 76 67 80 63 4 -4 -28 -42 -70 -85 -58 -59 -77 -84 -77 -105
0 -15 3 -27 8 -27 4 0 50 43 102 95 85 86 98 95 132 95 44 0 78 36 78 84 l-1
31 -24 -27 c-28 -33 -46 -35 -68 -10 -24 26 -21 43 11 69 l27 22 -31 1 c-17 0
-43 -9 -58 -21z"/>
<path d="M1466 2638 c-2 -7 -9 -71 -15 -142 -12 -150 -7 -169 42 -164 l32 3
-2 115 c-2 160 -9 200 -34 200 -11 0 -21 -6 -23 -12z m49 -248 c0 -31 -33 -40
-52 -14 -16 22 1 46 31 42 15 -2 21 -10 21 -28z"/>
<path d="M1110 2566 c-344 -104 -632 -337 -799 -646 -41 -78 -115 -259 -108
-266 14 -14 38 16 58 69 147 402 502 725 907 822 75 18 88 28 50 39 -29 7 -20
9 -108 -18z"/>
<path d="M1750 2578 c-23 -9 -16 -12 64 -34 411 -111 729 -392 886 -781 23
-57 46 -99 55 -101 20 -5 19 6 -10 83 -146 389 -460 687 -858 814 -108 35
-103 34 -137 19z"/>
<path d="M1380 2345 c-37 -37 -50 -45 -81 -45 -45 0 -79 -36 -79 -84 l1 -31
22 28 c26 32 47 34 70 9 23 -26 21 -39 -10 -67 l-28 -24 31 -1 c47 0 84 34 84
78 0 28 8 44 34 72 32 32 33 37 20 54 -14 19 -15 19 -47 -12 -50 -48 -54 -25
-5 25 23 24 40 43 37 43 -3 0 -25 -20 -49 -45z"/>
<path d="M1583 2355 c47 -52 49 -81 2 -35 -34 33 -35 33 -55 15 -20 -18 -20
-18 3 -39 37 -34 57 -69 57 -98 0 -35 35 -68 74 -68 l30 0 -29 30 -29 30 24
25 c30 31 37 31 72 -2 l28 -27 0 33 c0 43 -38 81 -82 81 -25 0 -44 11 -83 48
-40 38 -43 39 -12 7z"/>
<path d="M1140 2256 c-246 -87 -460 -278 -579 -513 -36 -73 -36 -73 -13 -73
12 0 27 19 46 57 63 128 172 260 291 352 65 50 219 132 283 152 24 7 42 19 45
30 6 24 6 24 -73 -5z"/>
<path d="M1760 2273 c1 -20 20 -33 85 -58 227 -85 425 -263 534 -478 23 -45
40 -67 52 -67 17 0 17 2 1 38 -106 236 -320 442 -554 532 -97 37 -118 43 -118
33z"/>
<path d="M1237 2050 c-214 -25 -243 -38 -282 -128 -16 -37 -42 -96 -59 -132
l-30 -64 -8 34 c-12 46 -43 73 -68 60 -35 -18 -37 -98 -6 -171 6 -15 -19 -17
-266 -21 -294 -5 -290 -5 -386 -66 -48 -30 -71 -63 -72 -103 0 -14 34 -122 75
-239 l75 -213 -20 -22 c-11 -12 -20 -29 -20 -38 0 -21 100 -146 163 -204 66
-61 84 -62 178 -18 44 21 81 36 83 34 2 -2 8 -18 13 -35 l11 -31 -227 -53
c-124 -29 -228 -54 -230 -56 -2 -2 601 -4 1340 -3 l1344 1 -90 23 c-49 13
-152 38 -228 56 -138 32 -138 32 -132 58 4 14 10 30 14 34 5 5 42 -8 83 -29
59 -29 81 -35 104 -30 26 7 107 82 203 190 39 44 44 83 13 104 -21 13 -20 16
54 229 41 119 74 226 74 240 0 43 -27 79 -91 118 -77 47 -128 54 -425 54
l-212 1 19 37 c29 58 20 143 -17 157 -24 9 -54 -27 -62 -74 l-8 -45 -30 65
c-16 36 -45 100 -64 143 -41 90 -53 98 -186 123 -104 19 -504 28 -627 14z
m571 -46 c134 -14 178 -26 193 -54 17 -30 119 -257 119 -263 0 -4 -13 -7 -29
-7 -25 0 -30 4 -36 38 -3 20 -26 78 -49 128 -36 75 -48 92 -71 98 -71 18 -341
46 -440 46 -99 0 -358 -28 -429 -46 -30 -7 -73 -82 -111 -194 -19 -56 -25 -65
-48 -68 -15 -2 -27 -1 -27 2 0 5 105 241 119 266 18 34 100 50 386 74 73 6
270 -3 423 -20z m-227 -86 c5 -7 9 -15 9 -18 0 -3 -41 -5 -90 -5 -74 0 -90 3
-88 15 2 8 14 18 28 22 36 11 132 1 141 -14z m-519 -35 c31 -36 37 -59 29
-116 -8 -56 -7 -57 18 -58 l26 -1 -25 -8 c-14 -4 -41 -8 -60 -8 -32 0 -33 1
-10 8 22 7 23 8 4 9 -11 1 -35 -6 -53 -15 -18 -9 -34 -14 -36 -12 -12 12 69
218 85 218 4 0 14 -8 22 -17z m933 -39 c31 -65 59 -153 51 -161 -2 -3 -19 2
-37 11 -18 9 -42 16 -53 15 -19 -1 -18 -2 4 -9 23 -7 22 -8 -10 -8 -19 0 -46
4 -60 8 l-25 8 26 1 c25 1 26 1 18 59 -7 51 -6 61 17 95 13 20 28 37 33 37 5
0 22 -25 36 -56z m-817 -80 l-3 -39 -5 47 c-3 26 -1 43 3 39 5 -5 7 -26 5 -47z
m652 9 c-4 -42 -5 -44 -8 -15 -3 30 2 62 10 62 2 0 1 -21 -2 -47z m67 -35 c-2
-13 -4 -5 -4 17 -1 22 1 32 4 23 2 -10 2 -28 0 -40z m-790 -5 c-3 -10 -5 -2
-5 17 0 19 2 27 5 18 2 -10 2 -26 0 -35z m-320 -5 c-3 -7 -5 -2 -5 12 0 14 2
19 5 13 2 -7 2 -19 0 -25z m426 -15 c-13 -2 -35 -2 -50 0 -16 2 -5 4 22 4 28
0 40 -2 28 -4z m630 0 c-13 -2 -35 -2 -50 0 -16 2 -5 4 22 4 28 0 40 -2 28 -4z
m-1040 -23 c3 -11 1 -18 -4 -14 -5 3 -9 12 -9 20 0 20 7 17 13 -6z m1408 -13
c-10 -9 -11 -8 -5 6 3 10 9 15 12 12 3 -3 0 -11 -7 -18z m-1936 -183 c21 -10
47 -31 57 -45 19 -26 110 -314 123 -388 6 -38 5 -42 -22 -52 -36 -13 -165 -14
-190 -1 -13 7 -40 69 -85 195 -88 242 -89 248 -49 288 29 28 36 31 80 27 26
-3 65 -13 86 -24z m2617 -4 c39 -39 37 -49 -41 -270 -34 -93 -61 -174 -61
-178 0 -5 -9 -17 -19 -26 -33 -30 -213 -22 -225 9 -13 35 103 411 137 443 29
28 91 50 140 51 30 1 45 -6 69 -29z m-455 -128 c67 -4 125 -10 127 -13 10 -10
-78 -319 -91 -319 -17 0 -18 -3 19 147 18 73 29 136 24 140 -13 13 -2013 10
-2026 -3 -8 -8 -2 -48 24 -148 29 -117 32 -137 18 -134 -12 2 -28 45 -58 156
-41 153 -41 154 -20 163 12 5 136 13 276 18 299 9 1530 4 1707 -7z m-1852 -62
c3 -5 1 -10 -4 -10 -6 0 -11 5 -11 10 0 6 2 10 4 10 3 0 8 -4 11 -10z m915
-10 c395 0 720 3 723 8 2 4 2 1 1 -5 -3 -10 26 -13 119 -14 67 0 131 -4 142
-9 11 -4 -128 -5 -308 -2 -276 4 -330 3 -338 -9 -6 -10 -9 -10 -9 -1 0 9 -73
12 -330 12 -257 0 -330 -3 -331 -12 0 -10 -2 -10 -6 0 -3 8 -32 12 -94 12 -64
0 -89 -3 -89 -12 0 -9 -3 -9 -9 1 -8 12 -48 13 -243 8 -128 -3 -222 -2 -208 3
14 4 78 8 142 9 89 1 117 4 114 14 -1 6 -1 9 1 5 3 -5 328 -8 723 -8z m0 -50
c390 0 710 3 713 8 2 4 2 1 1 -5 -3 -10 30 -13 136 -13 80 0 140 -4 140 -9 0
-6 -108 -7 -276 -4 -231 5 -277 4 -285 -8 -6 -10 -9 -10 -9 -1 0 18 -840 18
-840 0 0 -9 -3 -9 -9 1 -8 12 -54 13 -287 8 -171 -3 -273 -2 -264 3 8 6 72 10
142 10 97 0 127 3 124 13 -1 6 -1 9 1 5 3 -5 323 -8 713 -8z m798 -57 c101 -3
180 -8 177 -12 -4 -3 -85 -4 -182 -2 -139 2 -178 0 -185 -10 -8 -11 -9 -11 -5
2 4 13 -3 15 -51 13 -32 -2 -261 -4 -509 -4 -353 0 -453 -3 -453 -13 0 -9 -2
-9 -8 0 -5 7 -43 14 -99 16 -81 4 -91 3 -86 -12 4 -12 3 -13 -5 -2 -8 10 -46
13 -183 11 -199 -3 -240 1 -94 10 138 8 1459 11 1683 3z m-1303 -23 c3 -5 1
-10 -4 -10 -6 0 -11 5 -11 10 0 6 2 10 4 10 3 0 8 -4 11 -10z m625 -10 c0 -5
-5 -10 -11 -10 -5 0 -7 5 -4 10 3 6 8 10 11 10 2 0 4 -4 4 -10z m836 -22 c4
-5 -52 -8 -123 -8 -72 0 -133 -3 -136 -7 -2 -5 -2 -2 0 5 5 21 -264 13 -277
-8 -7 -10 -10 -11 -10 -2 0 14 -74 15 -337 5 -145 -5 -173 -9 -176 -22 -3 -11
-5 -10 -6 5 -1 20 -7 21 -242 27 -132 3 -325 4 -427 2 -103 -2 -160 0 -127 4
82 9 1851 8 1861 -1z m-1046 -51 c162 -1 377 2 478 7 180 8 562 -1 562 -13 0
-3 -258 -7 -573 -9 -402 -2 -573 -6 -576 -13 -2 -7 -6 -6 -12 2 -6 11 -43 15
-144 17 l-135 4 -1 -24 -2 -23 -4 23 c-4 18 -11 22 -44 22 -30 0 -39 -4 -40
-17 -1 -16 -2 -16 -6 0 -4 17 -18 18 -184 15 -98 -2 -179 0 -179 3 0 9 381 22
476 18 60 -3 71 -2 66 11 -3 10 0 9 9 -3 13 -16 40 -18 309 -20z m420 29 c0
-3 -4 -8 -10 -11 -5 -3 -10 -1 -10 4 0 6 5 11 10 11 6 0 10 -2 10 -4z m-1186
-62 c3 -8 2 -12 -4 -9 -6 3 -10 10 -10 16 0 14 7 11 14 -7z m94 -9 c-3 -3 -9
2 -12 12 -6 14 -5 15 5 6 7 -7 10 -15 7 -18z m359 3 c-3 -8 -6 -5 -6 6 -1 11
2 17 5 13 3 -3 4 -12 1 -19z m720 4 c-1 -14 -7 -17 -26 -13 -25 5 -25 6 -3 9
12 2 22 8 22 13 0 5 2 9 4 9 3 0 4 -8 3 -18z m90 -14 c-3 -7 -5 -2 -5 12 0 14
2 19 5 13 2 -7 2 -19 0 -25z m90 10 c-3 -8 -6 -5 -6 6 -1 11 2 17 5 13 3 -3 4
-12 1 -19z m90 0 c-3 -8 -6 -5 -6 6 -1 11 2 17 5 13 3 -3 4 -12 1 -19z m-694
-9 c-6 -6 -42 -8 -84 -6 l-74 3 78 2 c51 1 77 6 77 14 0 6 3 8 7 5 4 -4 2 -12
-4 -18z m297 -2 l75 -3 -77 -2 c-43 -1 -78 -5 -78 -9 0 -5 -49 -8 -109 -8 -60
0 -107 3 -104 8 2 4 51 7 108 7 95 0 104 2 99 18 -4 11 -3 13 3 5 5 -7 41 -14
83 -16z m-467 6 c-7 -2 -19 -2 -25 0 -7 3 -2 5 12 5 14 0 19 -2 13 -5z m-18
-51 c252 -21 338 -21 660 6 194 15 301 19 423 15 89 -3 162 -9 162 -13 0 -20
-37 -25 -170 -20 -95 3 -254 -2 -463 -16 l-319 -21 -321 23 c-177 12 -324 21
-327 19 -3 -2 -68 -5 -145 -6 -124 -3 -140 -1 -143 14 -6 31 280 31 643 -1z
m-656 -6 c9 -11 4 -17 -26 -29 -36 -14 -160 -41 -228 -50 -24 -3 -22 -4 11 -6
34 -1 144 23 251 55 19 5 26 -2 54 -62 18 -38 35 -72 36 -75 2 -4 -9 -10 -24
-13 -15 -4 -67 -25 -115 -47 -82 -38 -89 -39 -115 -26 -43 23 -203 201 -203
227 0 8 14 9 47 3 70 -12 164 -5 230 16 73 24 68 23 82 7z m1994 -11 c63 -18
155 -23 220 -12 75 13 68 -3 -68 -150 -33 -36 -73 -72 -88 -80 -27 -13 -33
-12 -111 25 -45 22 -96 43 -113 46 l-31 7 29 57 c16 31 29 62 29 69 0 24 21
23 106 -2 48 -13 117 -27 153 -30 l66 -5 -84 15 c-101 18 -189 43 -196 56 -9
14 5 31 21 25 8 -3 38 -12 67 -21z m-1638 -34 c3 -16 14 -36 23 -44 17 -15
177 -37 272 -37 46 0 50 2 71 39 l22 39 208 0 208 0 20 -34 c12 -19 28 -37 38
-41 18 -7 268 12 296 23 9 3 22 24 28 45 l12 39 131 0 c72 0 141 -3 153 -6
l22 -6 -20 -52 c-36 -91 -43 -94 -189 -98 -122 -3 -128 -2 -118 15 5 10 7 21
4 25 -3 3 -6 0 -6 -6 0 -30 -60 -52 -196 -71 -76 -11 -142 -17 -146 -15 -4 3
-13 -6 -20 -21 -6 -14 -23 -29 -37 -33 -14 -4 -102 -7 -195 -7 l-169 1 -24 29
c-13 17 -27 29 -31 28 -4 -1 -67 7 -140 17 -87 12 -145 26 -167 39 -19 11 -32
14 -29 8 7 -19 -246 -10 -267 9 -23 21 -62 113 -55 130 4 11 35 14 150 14
l144 0 7 -29z m46 -176 l34 -14 -37 -1 c-27 0 -38 4 -38 15 0 18 0 18 41 0z
m1139 0 c0 -11 -11 -15 -37 -15 l-38 1 30 14 c40 18 45 18 45 0z"/>
<path d="M1450 1920 c-17 -5 -7 -7 32 -6 58 1 70 8 21 11 -16 2 -39 -1 -53 -5z"/>
<path d="M1550 1916 c0 -2 7 -7 16 -10 8 -3 12 -2 9 4 -6 10 -25 14 -25 6z"/>
<path d="M125 1475 c-14 -13 -25 -31 -25 -39 0 -8 14 -54 31 -102 l32 -87 105
7 c58 3 107 7 108 9 2 2 -5 30 -15 62 -13 39 -20 51 -20 35 -2 -32 -10 -43
-44 -58 -47 -20 -76 -15 -113 22 -32 32 -45 66 -25 66 5 0 14 14 21 30 22 52
96 49 125 -5 11 -21 35 -32 35 -16 0 20 -46 65 -84 82 -58 26 -102 24 -131 -6z
m75 2 c0 -2 -10 -12 -22 -23 l-23 -19 19 23 c18 21 26 27 26 19z"/>
<path d="M223 1394 c-7 -19 20 -49 36 -40 16 11 13 43 -5 50 -22 8 -24 8 -31
-10z m37 -14 c0 -5 -4 -10 -10 -10 -5 0 -10 5 -10 10 0 6 5 10 10 10 6 0 10
-4 10 -10z"/>
<path d="M181 1384 c0 -11 3 -14 6 -6 3 7 2 16 -1 19 -3 4 -6 -2 -5 -13z"/>
<path d="M296 1362 c-4 -12 -17 -27 -28 -33 -16 -9 -26 -7 -49 10 -34 25 -38
20 -7 -9 28 -25 52 -26 78 0 11 11 20 15 20 8 0 -6 2 -9 5 -6 3 3 1 16 -3 29
l-9 24 -7 -23z"/>
<path d="M242 1233 c-52 -3 -72 -7 -69 -16 2 -7 16 -49 31 -94 15 -45 34 -87
42 -93 15 -13 139 -16 174 -5 26 8 25 21 -7 127 l-26 88 -36 -2 c-20 -1 -69
-4 -109 -5z m120 -62 c15 -14 16 -22 7 -54 -9 -32 -14 -37 -39 -37 -18 0 -35
8 -45 23 -10 12 -15 16 -13 8 2 -8 16 -23 30 -34 33 -24 66 -9 75 34 7 38 33
39 33 0 0 -53 -75 -83 -129 -50 -32 19 -53 70 -33 77 7 2 12 10 12 17 0 21 42
46 65 39 11 -3 28 -14 37 -23z"/>
<path d="M304 1135 c-7 -18 3 -35 21 -35 21 0 28 19 15 35 -16 19 -29 19 -36
0z m26 -11 c0 -8 -5 -12 -10 -9 -6 4 -8 11 -5 16 9 14 15 11 15 -7z"/>
<path d="M2745 1481 c-22 -10 -47 -27 -57 -37 -16 -19 -71 -174 -64 -181 2 -2
52 -5 111 -6 l108 -2 28 80 c35 100 36 118 3 144 -33 26 -76 26 -129 2z m65
-41 c11 -11 20 -29 20 -41 0 -11 5 -17 10 -14 25 15 7 -30 -24 -61 -31 -31
-40 -35 -79 -32 -25 2 -43 6 -40 11 2 4 0 7 -6 7 -17 0 -33 40 -27 66 4 14 11
22 16 19 6 -3 10 -1 10 5 0 6 4 8 10 5 5 -3 7 0 4 8 -7 18 32 47 63 47 13 0
32 -9 43 -20z"/>
<path d="M2740 1395 c-13 -15 -7 -45 8 -45 16 0 34 29 28 45 -7 19 -20 19 -36
0z m25 -15 c-3 -5 -10 -10 -16 -10 -5 0 -9 5 -9 10 0 6 7 10 16 10 8 0 12 -4
9 -10z"/>
<path d="M2811 1384 c0 -11 3 -14 6 -6 3 7 2 16 -1 19 -3 4 -6 -2 -5 -13z"/>
<path d="M2690 1378 c-1 -21 27 -59 47 -64 24 -6 73 18 73 37 0 5 -13 0 -28
-11 -33 -25 -57 -19 -77 19 -8 14 -14 23 -15 19z"/>
<path d="M2584 1140 c-15 -55 -24 -103 -21 -107 20 -19 185 -21 201 -2 5 6 66
192 63 194 -1 1 -50 5 -108 8 l-107 7 -28 -100z m127 50 c26 -14 51 -67 44
-91 -4 -11 -20 -29 -37 -39 -53 -32 -128 2 -128 58 0 15 5 22 13 19 6 -2 11
-17 10 -33 -2 -22 0 -25 7 -14 6 9 10 10 10 3 0 -7 9 -17 19 -23 23 -12 67 4
76 28 5 13 2 12 -14 -2 -27 -25 -63 -17 -80 18 -16 34 -8 54 30 73 29 15 26
15 50 3z"/>
<path d="M2667 1144 c-15 -15 -7 -45 11 -42 9 2 17 12 17 22 0 20 -16 31 -28
20z m18 -13 c3 -5 1 -12 -5 -16 -5 -3 -10 1 -10 9 0 18 6 21 15 7z"/>
<path d="M538 805 c-16 -27 -21 -42 -12 -38 8 3 14 9 14 15 0 5 4 7 8 4 18
-11 34 12 26 37 -9 25 -9 25 -36 -18z m32 1 c0 -3 -4 -8 -10 -11 -5 -3 -10 -1
-10 4 0 6 5 11 10 11 6 0 10 -2 10 -4z"/>
<path d="M2426 824 c-11 -29 -6 -39 11 -19 15 20 15 20 10 -2 -3 -15 -1 -20 9
-16 10 4 11 10 4 23 -15 27 -27 32 -34 14z"/>
<path d="M2460 776 c0 -2 7 -7 16 -10 8 -3 12 -2 9 4 -6 10 -25 14 -25 6z"/>
<path d="M860 826 c0 -2 7 -7 16 -10 8 -3 12 -2 9 4 -6 10 -25 14 -25 6z"/>
<path d="M2115 819 c-2 -3 46 -6 108 -6 123 -1 111 5 -21 9 -46 2 -85 1 -87
-3z"/>
<path d="M713 813 c26 -2 67 -2 90 0 23 2 2 3 -48 3 -49 0 -68 -1 -42 -3z"/>
<path d="M240 483 c-63 -20 -90 -57 -90 -120 0 -82 74 -139 151 -117 41 12 78
59 61 76 -9 9 -12 9 -12 0 0 -7 -9 -21 -20 -32 -28 -28 -75 -26 -107 6 -22 22
-25 32 -20 77 3 37 11 56 27 69 35 28 76 23 102 -12 29 -40 38 -38 38 10 0 37
-11 52 -25 31 -3 -6 -17 -4 -33 5 -28 14 -46 16 -72 7z"/>
<path d="M970 483 c-47 -18 -65 -70 -37 -105 6 -9 39 -23 71 -32 71 -18 82
-27 67 -55 -16 -29 -79 -29 -109 -1 -12 12 -22 25 -22 30 0 6 -4 10 -10 10 -5
0 -10 -18 -10 -41 0 -34 3 -40 16 -35 9 3 33 1 54 -5 80 -24 146 27 119 92
-11 27 -30 37 -104 54 -44 10 -57 23 -44 46 19 36 119 14 119 -27 0 -8 7 -14
15 -14 11 0 15 11 15 39 0 38 -1 40 -32 39 -18 -1 -46 2 -63 5 -16 3 -37 4
-45 0z"/>
<path d="M1190 481 c-14 -4 -32 -19 -40 -34 -13 -24 -13 -30 0 -54 15 -27 44
-40 123 -57 53 -12 28 -66 -30 -66 -34 0 -83 36 -83 60 0 6 -4 8 -10 5 -5 -3
-10 -23 -10 -45 0 -37 1 -38 38 -40 121 -5 124 -5 143 19 43 53 18 96 -71 120
-47 12 -66 22 -68 35 -9 45 68 49 108 6 15 -16 31 -30 34 -30 3 0 6 17 6 39 0
35 -2 38 -27 37 -16 0 -41 3 -58 6 -16 3 -41 3 -55 -1z"/>
<path d="M1573 479 c-49 -14 -73 -52 -73 -115 0 -44 5 -59 28 -84 49 -55 146
-50 177 10 20 39 7 44 -25 10 -34 -37 -80 -40 -110 -8 -30 32 -28 117 3 146
39 37 102 21 119 -29 8 -24 28 2 28 37 0 24 -5 34 -15 34 -8 0 -15 -5 -15 -11
0 -8 -4 -8 -12 -1 -20 16 -70 21 -105 11z"/>
<path d="M1900 479 c-31 -13 -40 -27 -40 -61 0 -39 30 -65 84 -73 62 -10 82
-25 67 -53 -16 -30 -82 -31 -111 -2 -11 11 -20 25 -20 30 0 6 -4 10 -10 10 -5
0 -10 -18 -10 -41 0 -34 3 -40 16 -35 9 3 33 1 54 -5 53 -16 104 2 120 42 19
45 -10 80 -81 97 -66 16 -88 34 -69 56 27 33 120 6 120 -34 0 -5 5 -10 10 -10
6 0 10 17 10 39 0 35 -2 38 -27 38 -16 0 -41 3 -58 6 -16 4 -41 2 -55 -4z"/>
<path d="M400 471 c0 -5 7 -11 15 -15 12 -4 15 -25 15 -96 0 -73 -3 -90 -15
-90 -8 0 -15 -4 -15 -10 0 -6 42 -10 105 -10 l105 0 0 45 c0 25 -4 45 -10 45
-5 0 -10 -8 -10 -18 0 -31 -34 -54 -76 -50 l-37 3 1 90 c0 73 3 91 16 93 37 8
12 22 -39 22 -30 0 -55 -4 -55 -9z"/>
<path d="M705 383 c-21 -54 -47 -106 -59 -115 -21 -17 -20 -18 27 -18 26 0 47
5 47 10 0 6 -7 10 -16 10 -11 0 -14 5 -10 16 3 9 6 18 6 20 0 2 22 4 49 4 35
0 51 -4 55 -16 8 -22 8 -24 -8 -24 -8 0 -18 -4 -21 -10 -4 -6 17 -10 54 -10
34 0 61 4 61 10 0 6 -6 10 -12 10 -7 0 -30 47 -52 105 -33 92 -41 105 -61 105
-20 0 -28 -13 -60 -97z m64 10 c7 -21 15 -44 17 -50 4 -9 -7 -13 -36 -13 -30
0 -41 4 -37 13 2 6 10 29 18 50 7 20 16 37 19 37 4 0 12 -17 19 -37z"/>
<path d="M1360 470 c0 -5 7 -10 15 -10 24 0 22 -178 -2 -196 -16 -12 -10 -13
42 -13 52 0 58 1 43 13 -25 18 -27 196 -3 196 8 0 15 5 15 10 0 6 -25 10 -55
10 -30 0 -55 -4 -55 -10z"/>
<path d="M2144 383 c-20 -54 -46 -106 -58 -115 -21 -17 -20 -18 27 -18 26 0
47 5 47 10 0 6 -7 10 -16 10 -11 0 -14 5 -10 16 3 9 6 18 6 20 0 2 22 4 49 4
35 0 51 -4 55 -16 8 -22 8 -24 -8 -24 -8 0 -18 -4 -21 -10 -4 -6 17 -10 54
-10 34 0 61 4 61 10 0 6 -6 10 -12 10 -7 0 -30 47 -52 105 -33 92 -41 105 -61
105 -20 0 -28 -13 -61 -97z m65 10 c7 -21 15 -44 17 -50 4 -9 -7 -13 -36 -13
-30 0 -41 4 -37 13 2 6 10 29 18 50 7 20 16 37 19 37 4 0 12 -17 19 -37z"/>
<path d="M2350 470 c0 -5 7 -10 15 -10 24 0 22 -178 -2 -196 -15 -11 -2 -13
88 -14 l106 0 6 42 c3 24 4 44 2 46 -8 9 -25 -10 -25 -28 0 -25 -29 -40 -74
-40 l-36 0 0 95 c0 78 3 95 15 95 8 0 15 5 15 10 0 6 -25 10 -55 10 -30 0 -55
-4 -55 -10z"/>
<path d="M2590 470 c0 -5 7 -10 15 -10 12 0 15 -17 15 -95 0 -78 -3 -95 -15
-95 -8 0 -15 -4 -15 -10 0 -6 42 -10 105 -10 l105 0 0 29 c0 16 3 36 6 45 4
11 1 16 -10 16 -9 0 -16 -8 -16 -18 0 -29 -33 -52 -73 -52 l-37 0 0 45 c0 39
3 45 21 45 12 0 23 -8 26 -20 10 -37 23 -20 23 30 0 50 -13 67 -23 30 -3 -12
-14 -20 -26 -20 -18 0 -21 6 -21 40 0 40 0 40 38 40 42 0 56 -7 65 -32 11 -30
27 -20 27 17 l0 35 -105 0 c-63 0 -105 -4 -105 -10z"/>
</g>
</svg>
